<?xml version="1.0" standalone="no"?><!DOCTYPE svg PUBLIC "-//W3C//DTD SVG 1.1//EN" "http://www.w3.org/Graphics/SVG/1.1/DTD/svg11.dtd"><svg t="1497966805354" class="icon" style="" viewBox="0 0 1024 1024" version="1.1" xmlns="http://www.w3.org/2000/svg" p-id="1818" xmlns:xlink="http://www.w3.org/1999/xlink" width="48" height="48"><defs><style type="text/css"></style></defs><path d="M905.661638 86.252113h-33.487899a66.975799 66.975799 0 0 0-66.983024 66.983024v117.218486a66.975799 66.975799 0 0 0 66.983024 66.983024h33.487899a66.975799 66.975799 0 0 0 66.983024-66.983024V153.227912a66.975799 66.975799 0 0 0-66.983024-66.975799z" fill="#3880B2" p-id="1819"></path><path d="M905.661638 387.672109h-33.487899a66.983024 66.983024 0 0 0-66.983024 66.983024v117.211261a66.975799 66.975799 0 0 0 66.983024 66.983024h33.487899a66.975799 66.975799 0 0 0 66.983024-66.983024V454.655133a66.975799 66.975799 0 0 0-66.983024-66.983024z" fill="#DD5354" p-id="1820"></path><path d="M905.661638 689.09933h-33.487899a66.975799 66.975799 0 0 0-66.983024 66.983024v117.218486a66.983024 66.983024 0 0 0 66.983024 66.983024h33.487899a66.975799 66.975799 0 0 0 66.983024-66.983024v-117.218486a66.975799 66.975799 0 0 0-66.983024-66.983024z" fill="#6EBA6F" p-id="1821"></path><path d="M888.914076 940.276639h33.495125V689.09933h-33.495125v251.177309z m0-301.419996h33.495125V387.672109h-33.495125v251.184534z m0-552.60453v251.184534h33.495125V86.252113h-33.495125z" fill="#040000" p-id="1822"></path><path d="M805.190715 2.521527H185.595936V1024h619.594779c46.240034 0 83.723361-37.483327 83.723361-83.730586V86.252113c0-46.247259-37.476102-83.730586-83.723361-83.730586z" fill="#8d8d63" p-id="1823" class="selected"></path><path d="M118.620137 2.521527A66.983024 66.983024 0 0 0 51.637113 69.504551v887.512425a66.975799 66.975799 0 0 0 66.983024 66.983024h66.983024V2.521527h-66.983024z" fill="#8C6246" p-id="1824"></path></svg>