<?xml version="1.0" standalone="no"?><!DOCTYPE svg PUBLIC "-//W3C//DTD SVG 1.1//EN" "http://www.w3.org/Graphics/SVG/1.1/DTD/svg11.dtd"><svg t="1497966852209" class="icon" style="" viewBox="0 0 1024 1024" version="1.1" xmlns="http://www.w3.org/2000/svg" p-id="3380" xmlns:xlink="http://www.w3.org/1999/xlink" width="48" height="48"><defs><style type="text/css"></style></defs><path d="M924.2624 142.1824h-255.42656c-48.4096 0-93.9008 17.88416-128.19456 50.47808-11.6736 11.06944-20.79744 23.83872-28.70272 37.0944-7.9104-13.25568-17.02912-25.9072-28.8256-37.0944-34.304-32.59392-79.79008-50.47296-128.19968-50.47296H99.7376c-13.49632 0-24.44288 10.33216-24.44288 23.22944V807.3728c0 12.89216 10.94656 23.22944 24.448 23.22944h229.75488c9.61024 0 19.34336 0.73216 29.07136 2.54976 9.85088 1.83296 19.21536 4.38272 28.09344 7.79264l116.4032 43.05408c0.24064 0.11776 0.4864 0 0.72704 0.11776 2.67776 0.85504 5.35552 1.4592 8.15104 1.4592 2.80064 0 5.46816-0.48128 8.15104-1.4592 0.11776-0.11776 0.4864-0.11776 0.60928-0.11776l111.77472-41.35424a203.5456 203.5456 0 0 1 32.96256-9.00096 197.7344 197.7344 0 0 1 34.048-3.04128h224.77312c13.50656 0 24.45312-10.46016 24.45312-23.22944V165.29408c0-12.7744-10.94656-23.10656-24.45312-23.10656zM367.4368 787.43552a220.9792 220.9792 0 0 0-37.94944-3.28704H124.06272V188.5184h230.97344c35.38944 0 68.72064 13.13792 93.7728 37.09952 25.05728 23.83872 38.92224 55.45984 38.92224 89.27744v513.39776l-83.31776-30.77632a232.15616 232.15616 0 0 0-36.97152-10.09152z m532.49536-3.28704h-200.33024c-14.592 0-29.18912 1.21344-43.04896 3.77344-14.11072 2.67264-28.22144 6.44096-41.6 11.43296l-78.57152 28.94848V314.7776c0-33.6896 13.74208-65.4336 38.79936-89.27744 25.05216-23.83872 58.38336-37.0944 93.7728-37.0944h231.09632v595.7376h-0.11776z" p-id="3381"></path></svg>