<?xml version="1.0" standalone="no"?><!DOCTYPE svg PUBLIC "-//W3C//DTD SVG 1.1//EN" "http://www.w3.org/Graphics/SVG/1.1/DTD/svg11.dtd"><svg t="1497968476600" class="icon" style="" viewBox="0 0 1024 1024" version="1.1" xmlns="http://www.w3.org/2000/svg" p-id="4830" xmlns:xlink="http://www.w3.org/1999/xlink" width="48" height="48"><defs><style type="text/css"></style></defs><path d="M401.08026 66.013483 144.00323 66.013483c-43.624567 0-79.100546 35.485189-79.100546 79.100546l0 257.07703c0 43.615357 35.474956 79.100546 79.100546 79.100546l257.07703 0c43.624567 0 79.099523-35.485189 79.099523-79.100546L480.179782 145.114029C480.179782 101.498672 444.704826 66.013483 401.08026 66.013483zM440.630021 402.191058c0 21.812795-17.747199 39.549761-39.549761 39.549761L144.00323 441.74082c-21.803585 0-39.549761-17.736966-39.549761-39.549761L104.453469 145.114029c0-21.812795 17.747199-39.550785 39.549761-39.550785l257.07703 0c21.802562 0 39.549761 17.73799 39.549761 39.550785L440.630021 402.191058zM875.683535 66.013483 618.606505 66.013483c-43.624567 0-79.100546 35.485189-79.100546 79.100546l0 257.07703c0 43.615357 35.475979 79.100546 79.100546 79.100546l257.078053 0c43.624567 0 79.099523-35.485189 79.099523-79.100546L954.78408 145.114029C954.783057 101.498672 919.308101 66.013483 875.683535 66.013483zM915.233296 402.191058c0 21.812795-17.747199 39.549761-39.548738 39.549761L618.606505 441.74082c-21.803585 0-39.549761-17.736966-39.549761-39.549761L579.056744 145.114029c0-21.812795 17.747199-39.550785 39.549761-39.550785l257.078053 0c21.802562 0 39.548738 17.73799 39.548738 39.550785L915.233296 402.191058zM401.08026 540.616758 144.00323 540.616758c-43.624567 0-79.100546 35.486212-79.100546 79.100546l0 257.078053c0 43.605124 35.474956 79.100546 79.100546 79.100546l257.07703 0c43.624567 0 79.099523-35.495422 79.099523-79.100546L480.179782 619.717304C480.179782 576.10297 444.704826 540.616758 401.08026 540.616758zM440.630021 876.794333c0 21.822005-17.747199 39.549761-39.549761 39.549761L144.00323 916.344095c-21.803585 0-39.549761-17.727757-39.549761-39.549761L104.453469 619.717304c0-21.811772 17.747199-39.549761 39.549761-39.549761l257.07703 0c21.802562 0 39.549761 17.73799 39.549761 39.549761L440.630021 876.794333zM875.683535 540.616758 618.606505 540.616758c-43.624567 0-79.100546 35.486212-79.100546 79.100546l0 257.078053c0 43.605124 35.475979 79.100546 79.100546 79.100546l257.078053 0c43.624567 0 79.099523-35.495422 79.099523-79.100546L954.78408 619.717304C954.783057 576.10297 919.308101 540.616758 875.683535 540.616758zM915.233296 876.794333c0 21.822005-17.747199 39.549761-39.548738 39.549761L618.606505 916.344095c-21.803585 0-39.549761-17.727757-39.549761-39.549761L579.056744 619.717304c0-21.811772 17.747199-39.549761 39.549761-39.549761l257.078053 0c21.802562 0 39.548738 17.73799 39.548738 39.549761L915.233296 876.794333z" p-id="4831"></path></svg>