<?xml version="1.0" standalone="no"?><!DOCTYPE svg PUBLIC "-//W3C//DTD SVG 1.1//EN" "http://www.w3.org/Graphics/SVG/1.1/DTD/svg11.dtd"><svg class="icon" width="32px" height="32.00px" viewBox="0 0 1024 1024" version="1.1" xmlns="http://www.w3.org/2000/svg"><path fill="#ffffff" d="M120.32 207.36h793.6c20.992 0 38.4-17.408 38.4-38.4s-17.408-38.4-38.4-38.4h-793.6c-20.992 0-38.4 17.408-38.4 38.4s17.408 38.4 38.4 38.4z m793.6 153.6h-793.6c-20.992 0-38.4 17.408-38.4 38.4s17.408 38.4 38.4 38.4h793.6c20.992 0 38.4-17.408 38.4-38.4s-17.408-38.4-38.4-38.4z m0 230.4h-793.6c-20.992 0-38.4 17.408-38.4 38.4s17.408 38.4 38.4 38.4h793.6c20.992 0 38.4-17.408 38.4-38.4s-17.408-38.4-38.4-38.4z m0 230.4h-793.6c-20.992 0-38.4 17.408-38.4 38.4s17.408 38.4 38.4 38.4h793.6c20.992 0 38.4-17.408 38.4-38.4s-17.408-38.4-38.4-38.4z" /></svg>