<?xml version="1.0" standalone="no"?><!DOCTYPE svg PUBLIC "-//W3C//DTD SVG 1.1//EN" "http://www.w3.org/Graphics/SVG/1.1/DTD/svg11.dtd"><svg class="icon" width="32px" height="32.00px" viewBox="0 0 1024 1024" version="1.1" xmlns="http://www.w3.org/2000/svg"><path fill="#ffffff" d="M125.952 225.792h781.824c20.992 0 37.888-16.896 37.888-37.888 0-20.992-16.896-37.888-37.888-37.888H125.952c-20.992 0-37.888 16.896-37.888 37.888 0.512 20.992 17.408 37.888 37.888 37.888z m782.336 252.416H125.952c-20.992 0-37.888 16.896-37.888 37.888 0 20.992 16.896 37.888 37.888 37.888h781.824c20.992 0 37.888-16.896 37.888-37.888 0.512-20.992-16.896-37.888-37.376-37.888z m0 327.68H125.952c-20.992 0-37.888 16.896-37.888 37.888 0 20.992 16.896 37.888 37.888 37.888h781.824c20.992 0 37.888-16.896 37.888-37.888 0.512-20.992-16.896-37.888-37.376-37.888z" /></svg>