<?xml version="1.0" standalone="no"?><!DOCTYPE svg PUBLIC "-//W3C//DTD SVG 1.1//EN" "http://www.w3.org/Graphics/SVG/1.1/DTD/svg11.dtd"><svg class="icon" width="32px" height="32.00px" viewBox="0 0 1024 1024" version="1.1" xmlns="http://www.w3.org/2000/svg"><path fill="#ffffff" d="M998.4 819.2l-768 0c-14.1312 0-25.6-11.4688-25.6-25.6s11.4688-25.6 25.6-25.6l768 0c14.1312 0 25.6 11.4688 25.6 25.6s-11.4688 25.6-25.6 25.6zM998.4 563.2l-768 0c-14.1312 0-25.6-11.4688-25.6-25.6s11.4688-25.6 25.6-25.6l768 0c14.1312 0 25.6 11.4688 25.6 25.6s-11.4688 25.6-25.6 25.6zM998.4 307.2l-768 0c-14.1312 0-25.6-11.4688-25.6-25.6s11.4688-25.6 25.6-25.6l768 0c14.1312 0 25.6 11.4688 25.6 25.6s-11.4688 25.6-25.6 25.6zM76.8 358.4c-42.3424 0-76.8-34.4576-76.8-76.8s34.4576-76.8 76.8-76.8 76.8 34.4576 76.8 76.8-34.4576 76.8-76.8 76.8zM76.8 256c-14.1312 0-25.6 11.4688-25.6 25.6s11.4688 25.6 25.6 25.6 25.6-11.4688 25.6-25.6-11.4688-25.6-25.6-25.6zM76.8 614.4c-42.3424 0-76.8-34.4576-76.8-76.8s34.4576-76.8 76.8-76.8 76.8 34.4576 76.8 76.8c0 42.3424-34.4576 76.8-76.8 76.8zM76.8 512c-14.1312 0-25.6 11.4688-25.6 25.6s11.4688 25.6 25.6 25.6 25.6-11.4688 25.6-25.6-11.4688-25.6-25.6-25.6zM76.8 870.4c-42.3424 0-76.8-34.4576-76.8-76.8s34.4576-76.8 76.8-76.8 76.8 34.4576 76.8 76.8-34.4576 76.8-76.8 76.8zM76.8 768c-14.1312 0-25.6 11.4688-25.6 25.6s11.4688 25.6 25.6 25.6 25.6-11.4688 25.6-25.6-11.4688-25.6-25.6-25.6z" /></svg>