<?xml version="1.0" standalone="no"?><!DOCTYPE svg PUBLIC "-//W3C//DTD SVG 1.1//EN" "http://www.w3.org/Graphics/SVG/1.1/DTD/svg11.dtd"><svg t="1498380340996" class="icon" style="" viewBox="0 0 1024 1024" version="1.1" xmlns="http://www.w3.org/2000/svg" p-id="4405" xmlns:xlink="http://www.w3.org/1999/xlink" width="32" height="32"><defs><style type="text/css"></style></defs><path d="M861.718 594.76c-5.845-5.912-14.548-7.873-22.487-5.278-34.483 11.712-70.058 17.645-105.697 17.645-181.708 0-329.566-147.834-329.566-329.521 0-36.162 6.172-72.325 18.3-107.485 2.706-7.873 0.72-16.599-5.149-22.487-5.846-5.912-14.547-7.917-22.465-5.279-151.609 51.409-253.445 193.312-253.445 353.187 0 205.766 167.4 373.188 373.167 373.188 158.915 0 300.556-101.050 352.489-251.482 2.706-7.874 0.72-16.599-5.149-22.487v0zM514.378 825.106c-181.708 0-329.543-147.879-329.543-329.566 0-126.548 72.346-240.424 183.802-295.344-5.518 25.606-8.288 51.475-8.288 77.407 0 205.723 167.4 373.144 373.188 373.144 25.257 0 50.449-2.638 75.336-7.852-55.205 110.516-168.752 182.211-294.493 182.211v0z" p-id="4406" fill="#ffffff"></path></svg>