<?xml version="1.0" standalone="no"?><!DOCTYPE svg PUBLIC "-//W3C//DTD SVG 1.1//EN" "http://www.w3.org/Graphics/SVG/1.1/DTD/svg11.dtd"><svg class="icon" width="200px" height="200.00px" viewBox="0 0 1024 1024" version="1.1" xmlns="http://www.w3.org/2000/svg"><path fill="#333333" d="M305.834667 117.077333l-99.328 0c-31.402667 0-54.954667 23.552-54.954667 54.954667l0 695.978667c0 31.402667 23.552 54.954667 54.954667 54.954667l99.328 0c31.402667 0 54.954667-23.552 54.954667-54.954667L360.789333 171.690667C360.448 140.629333 336.896 117.077333 305.834667 117.077333zM194.901333 171.690667c0-7.168 4.437333-11.605333 11.605333-11.605333l99.328 0c7.168 0 11.605333 4.437333 11.605333 11.605333l0 695.978667c0 7.168-4.437333 11.605333-11.605333 11.605333l-99.328 0c-7.168 0-11.605333-4.437333-11.605333-11.605333L194.901333 171.690667zM794.624 448.170667 695.296 448.170667c-31.402667 0-54.954667 23.552-54.954667 54.954667l0 364.544c0 31.402667 23.552 54.954667 54.954667 54.954667l99.328 0c30.72 0 54.954667-24.234667 54.954667-54.954667L849.578667 503.125333C849.237333 472.064 825.685333 448.170667 794.624 448.170667zM683.690667 503.125333c0-7.168 4.437333-11.605333 11.605333-11.605333l99.328 0c7.168 0 11.605333 4.437333 11.605333 11.605333l0 364.544c0 7.168-4.437333 11.605333-11.605333 11.605333L695.296 879.274667c-7.168 0-11.605333-4.437333-11.605333-11.605333L683.690667 503.125333zM550.912 282.624l-99.328 0c-31.402667 0-54.954667 23.552-54.954667 54.954667l0 530.432c0 31.402667 23.552 54.954667 54.954667 54.954667l99.328 0c30.378667 0 54.954667-24.576 54.954667-54.954667L605.866667 337.578667C605.866667 306.176 582.314667 282.624 550.912 282.624zM439.978667 337.578667c0-7.168 4.437333-11.605333 11.605333-11.605333l95.232 0c1.365333 0 3.072 0 4.096 0l0 0c7.168 0 11.605333 4.437333 11.605333 11.605333l0 530.432c0 7.168-4.437333 11.605333-11.605333 11.605333l-99.328 0c-7.168 0-11.605333-4.437333-11.605333-11.605333L439.978667 337.578667z" /></svg>