<?xml version="1.0" standalone="no"?><!DOCTYPE svg PUBLIC "-//W3C//DTD SVG 1.1//EN" "http://www.w3.org/Graphics/SVG/1.1/DTD/svg11.dtd"><svg t="1498300268564" class="icon" style="" viewBox="0 0 1024 1024" version="1.1" xmlns="http://www.w3.org/2000/svg" p-id="1667" xmlns:xlink="http://www.w3.org/1999/xlink" width="48" height="48"><defs><style type="text/css"></style></defs><path d="M1020.473 510.238c0 281.795-228.438 510.232-510.236 510.232C228.438 1020.473 0 792.033 0 510.238 0 228.438 228.438 0 510.236 0s510.237 228.438 510.237 510.238z" fill="#F1A46A" p-id="1668"></path><path d="M409.325 639.97c-5.523 0-10-4.478-10-10V490.064c0-5.523 4.477-10 10-10s10 4.477 10 10V629.97c0 5.522-4.477 10-10 10zM511.58 639.97c-5.523 0-10-4.478-10-10V439.622c0-5.523 4.477-10 10-10 5.522 0 10 4.477 10 10V629.97c0 5.522-4.477 10-10 10zM613.854 639.97c-5.522 0-10-4.478-10-10V401.945c0-5.523 4.478-10 10-10s10 4.477 10 10V629.97c0 5.522-4.478 10-10 10z" fill="#FFFFFF" p-id="1669"></path><path d="M679.774 738.21H340.698c-32.223 0-58.438-26.221-58.438-58.451V340.697c0-32.221 26.215-58.435 58.438-58.435h339.075c32.222 0 58.437 26.214 58.437 58.435v339.062c0 32.23-26.215 58.451-58.436 58.451zM340.698 302.262c-21.194 0-38.438 17.242-38.438 38.435v339.062c0 21.202 17.243 38.451 38.438 38.451h339.075c21.194 0 38.437-17.249 38.437-38.451V340.697c0-21.193-17.242-38.435-38.437-38.435H340.698z" fill="#FFFFFF" p-id="1670"></path></svg>