<?xml version="1.0" standalone="no"?><!DOCTYPE svg PUBLIC "-//W3C//DTD SVG 1.1//EN" "http://www.w3.org/Graphics/SVG/1.1/DTD/svg11.dtd"><svg class="icon" width="32px" height="32.00px" viewBox="0 0 1024 1024" version="1.1" xmlns="http://www.w3.org/2000/svg"><path fill="#ffffff" d="M509.083577 339.483878c-88.367607 0-160.000064 71.624271-160.000064 160.000064 0 88.358397 71.632457 160.000064 160.000064 160.000064 88.373747 0 160.000064-71.641667 160.000064-160.000064C669.083641 411.108149 597.458347 339.483878 509.083577 339.483878zM509.083577 627.484198c-70.687946 0-128.000256-57.313334-128.000256-128.000256 0-70.687946 57.311287-128.000256 128.000256-128.000256 70.687946 0 128.000256 57.31231 128.000256 128.000256C637.083833 570.170864 579.771523 627.484198 509.083577 627.484198zM896.55233 388.1953l-52.345182 0c-4.90573-16.000416-10.734482-27.019377-17.539468-41.089837l36.601616-35.276435c18.751063-18.747993 18.741853-48.492434 0-67.226101l-90.506317-90.175789c-18.741853-18.741853-49.140187-18.577101-67.884087 0.164752l-35.58445 34.879392c-14.617929-7.506974-30.319539-13.932314-46.318932-19.363l0-48.624441c0-26.508747-19.916609-53.28867-46.423309-53.28867L448.552969 68.195172c-26.507724 0-49.576115 26.779923-49.576115 53.28867l0 46.64025c-16.000416 5.343705-31.494295 11.850909-46.743604 19.438725L319.822073 154.757666c-18.741853-18.741853-48.931432-18.741853-67.681472 0l-90.412173 90.50734c-18.739806 18.750039-18.693758 49.140187 0.049119 67.883063l32.741705 30.073946c-7.622608 15.273868-14.139022 28.972868-19.514449 44.972261l-46.451962 0c-26.51591 0-49.576115 26.779923-49.576115 53.28867l0 128.000256c0 26.499537 23.060205 42.710754 49.576115 42.710754l48.26526 0c5.443989 16.000416 11.982916 33.745569 19.530822 48.465828l-34.523281 35.823903c-18.751063 18.751063-18.741853 49.805336 0 68.553329l90.506317 90.832751c18.741853 18.73469 49.133024 18.914792 67.884087 0.163729l35.547611-36.251645c14.156418 6.844895 27.211758 12.793374 43.212174 17.7165l0 51.982932c0 26.51591 23.068392 42.710754 49.576115 42.710754l128.000256 0c26.5067 0 46.423309-16.194844 46.423309-42.710754l0-53.970192c16.000416-4.999874 29.264511-10.890025 42.795689-17.639752l38.721907 38.327934c18.751063 18.750039 49.333592 18.750039 68.084655 0l90.603531-90.5012c18.74083-18.749016 18.798135-49.13814 0.048095-67.889203L824.840054 656.753825c6.720052-13.500479 12.595876-28.558429 17.563004-44.558845l54.149271 0c26.5067 0 46.424332-16.21224 46.424332-42.710754L942.976662 441.48397C942.976662 414.975223 923.05903 388.1953 896.55233 388.1953zM894.976438 543.999808c0 8.842389-6.120394 20.194948-14.954597 20.194948l-68.617797 0c-6.859221 31.999808-20.748556 71.010287-40.21798 102.574167l46.304605 45.246507c6.249331 6.251378 6.249331 15.852036 0 22.101367l-67.884087 67.611887c-6.249331 6.250354-16.373922 6.119371-22.624277-0.130983l-44.663222-44.205804c-31.82073 21.546735-75.342965 37.090756-107.342774 45.340651l0 61.265342c0 8.842389-6.120394 20.194948-14.954597 20.194948l-96.000448 0c-8.836249 0-17.045211-11.352559-17.045211-20.194948l0-61.531402c-31.999808-8.373715-74.166163-24.032346-105.84363-45.593408l-44.333718 44.593638c-6.250354 6.250354-16.243963 6.250354-22.494317 0l-67.817572-67.874877c-6.250354-6.250354-6.216585-16.374946 0.031722-22.626323l46.986127-44.86993c-19.259646-31.390941-32.992415-69.902046-39.804565-101.901855l-69.679989 0c-8.836249 0-17.045211-11.352559-17.045211-20.194948l0-96.000448c0-8.835226 8.208962-11.80486 17.045211-11.80486l73.850985 0c8.711406-31.999808 23.164582-69.864184 42.836621-98.902544l-54.156434-55.206346c-6.250354-6.249331-6.250354-16.898879 0-23.14821l67.883063-68.14503c6.250354-6.249331 16.373922-6.381337 22.624277-0.130983l55.799864 56.246025c28.765137-17.742083 62.116733-31.032784 94.117564-38.406728L446.976054 116.195396l128.000256 0 0 92.032066c31.999808 7.27366 66.670445 20.491707 95.568612 38.216393l56.17644-55.913451c6.249331-6.250354 16.504906-6.250354 22.75526 0l67.948555 67.883063c6.249331 6.250354 6.282077 16.374946 0.031722 22.624277l-53.530171 55.653531c19.882839 29.186739 34.531468 67.503417 43.305295 99.504248l72.788793 0c8.835226 0 14.954597 2.969635 14.954597 11.80486L894.975415 543.999808z" /></svg>