<?xml version="1.0" standalone="no"?><!DOCTYPE svg PUBLIC "-//W3C//DTD SVG 1.1//EN" "http://www.w3.org/Graphics/SVG/1.1/DTD/svg11.dtd"><svg class="icon" width="32px" height="32.00px" viewBox="0 0 1024 1024" version="1.1" xmlns="http://www.w3.org/2000/svg"><path fill="#ffffff" d="M512 256q69.67296 0 128.49152 34.32448t93.16352 93.16352 34.32448 128.49152-34.32448 128.49152-93.16352 93.16352-128.49152 34.32448-128.49152-34.32448-93.16352-93.16352-34.32448-128.49152 34.32448-128.49152 93.16352-93.16352 128.49152-34.32448zM240.66048 740.6592q17.67424 0 30.16704 12.67712t12.4928 30.33088q0 17.32608-12.67712 30.0032l-60.33408 60.33408q-12.67712 12.67712-30.0032 12.67712-17.67424 0-30.16704-12.4928t-12.4928-30.16704q0-18.00192 12.32896-30.33088l60.33408-60.33408q12.67712-12.67712 30.33088-12.67712zM512 853.34016q17.67424 0 30.16704 12.4928t12.4928 30.16704l0 85.34016q0 17.67424-12.4928 30.16704t-30.16704 12.4928-30.16704-12.4928-12.4928-30.16704l0-85.34016q0-17.67424 12.4928-30.16704t30.16704-12.4928zM42.65984 469.34016l85.34016 0q17.67424 0 30.16704 12.4928t12.4928 30.16704-12.4928 30.16704-30.16704 12.4928l-85.34016 0q-17.67424 0-30.16704-12.4928t-12.4928-30.16704 12.4928-30.16704 30.16704-12.4928zM512 341.34016q-70.67648 0-120.66816 49.99168t-49.99168 120.66816 49.99168 120.66816 120.66816 49.99168 120.66816-49.99168 49.99168-120.66816-49.99168-120.66816-120.66816-49.99168zM783.6672 740.6592q17.32608 0 30.0032 12.67712l60.33408 60.33408q12.67712 12.67712 12.67712 30.33088 0 17.32608-12.67712 30.0032t-30.0032 12.67712q-17.67424 0-30.33088-12.67712l-60.33408-60.33408q-12.32896-12.32896-12.32896-30.0032t12.4928-30.33088 30.16704-12.67712zM180.3264 137.33888q17.32608 0 30.0032 12.67712l60.33408 60.33408q12.67712 12.67712 12.67712 30.0032 0 17.67424-12.4928 30.16704t-30.16704 12.4928q-18.00192 0-30.33088-12.32896l-60.33408-60.33408q-12.32896-12.32896-12.32896-30.33088 0-17.67424 12.4928-30.16704t30.16704-12.4928zM512 0q17.67424 0 30.16704 12.4928t12.4928 30.16704l0 85.34016q0 17.67424-12.4928 30.16704t-30.16704 12.4928-30.16704-12.4928-12.4928-30.16704l0-85.34016q0-17.67424 12.4928-30.16704t30.16704-12.4928zM896 469.34016l85.34016 0q17.67424 0 30.16704 12.4928t12.4928 30.16704-12.4928 30.16704-30.16704 12.4928l-85.34016 0q-17.67424 0-30.16704-12.4928t-12.4928-30.16704 12.4928-30.16704 30.16704-12.4928zM844.00128 137.33888q17.32608 0 30.0032 12.67712t12.67712 30.0032q0 17.67424-12.67712 30.33088l-60.33408 60.33408q-12.32896 12.32896-30.0032 12.32896-18.3296 0-30.49472-12.16512t-12.16512-30.49472q0-17.67424 12.32896-30.0032l60.33408-60.33408q12.67712-12.67712 30.33088-12.67712z" /></svg>