<?xml version="1.0" standalone="no"?><!DOCTYPE svg PUBLIC "-//W3C//DTD SVG 1.1//EN" "http://www.w3.org/Graphics/SVG/1.1/DTD/svg11.dtd"><svg t="1498366486512" class="icon" style="" viewBox="0 0 1024 1024" version="1.1" xmlns="http://www.w3.org/2000/svg" p-id="2401" xmlns:xlink="http://www.w3.org/1999/xlink" width="48" height="48"><defs><style type="text/css"></style></defs><path d="M614.4 797.867c-18.876 0-34.133-15.258-34.133-34.133v-375.467c0-18.876 15.258-34.133 34.133-34.133s34.133 15.258 34.133 34.133v375.467c0 18.876-15.258 34.133-34.133 34.133zM409.6 797.867c-18.876 0-34.133-15.258-34.133-34.133v-375.467c0-18.876 15.258-34.133 34.133-34.133s34.133 15.258 34.133 34.133v375.467c0 18.876-15.258 34.133-34.133 34.133zM955.733 217.6h-170.667v-68.267c0-56.457-45.568-102.4-101.615-102.4h-342.118c-56.457 0-102.4 45.943-102.4 102.4v68.267h-170.667c-18.876 0-34.133 15.258-34.133 34.133s15.258 34.133 34.133 34.133h887.467c18.876 0 34.133-15.258 34.133-34.133s-15.258-34.133-34.133-34.133zM307.2 149.333c0-18.807 15.326-34.133 34.133-34.133h342.118c18.705 0 33.348 14.985 33.348 34.133v68.267h-409.6v-68.267zM751.070 1002.667h-477.935c-56.457 0-102.4-45.943-102.4-102.4v-512.512c0-18.842 15.292-34.133 34.133-34.133s34.133 15.292 34.133 34.133v512.512c0 18.842 15.326 34.133 34.133 34.133h477.935c18.842 0 34.133-15.292 34.133-34.133v-511.113c0-18.842 15.258-34.133 34.133-34.133s34.133 15.292 34.133 34.133v511.113c0 56.457-45.943 102.4-102.4 102.4z" p-id="2402" fill="#515151"></path></svg>